# xmcd
# 
# Track frame offsets:
#     150
#     31442
#     51215
#     72297
#     92244
#     103427
#     127349
#     147322
#     160319
#     174571
#     192980
# 
# Disc length: 2930
# 
# Revision: 1
# Processed by: cddbd v1.5.2PL0 Copyright (c) Steve Scherf et al.
# Submitted via: BonkEnc v1.0.8
# 
DISCID=ab0b700b
DTITLE=Groove Factor - Filthy McNasty
DYEAR=2007
DGENRE=Jazz
TTITLE0=Organ Funk
TTITLE1=Filthy McNasty
TTITLE2=Dance With Me
TTITLE3=Fire Eater
TTITLE4=Everything I Am
TTITLE5=Sham Time
TTITLE6=One More River To Cross
TTITLE7=Blowin The Blues Away
TTITLE8=Too High
TTITLE9=New York On My Mind
TTITLE10=A Swordfish Diary
EXTD=
EXTT0=
EXTT1=
EXTT2=
EXTT3=
EXTT4=
EXTT5=
EXTT6=
EXTT7=
EXTT8=
EXTT9=
EXTT10=
PLAYORDER=
